<?xml version="1.0" encoding="UTF-8"?>
<svg width="18px" height="16px" viewBox="0 0 18 16" version="1.1" xmlns="http://www.w3.org/2000/svg" xmlns:xlink="http://www.w3.org/1999/xlink">
    <title>Arrow Left</title>
    <defs>
        <path d="M8.99339795,16.1187032 C9.38763158,16.5511272 9.39336125,17.2459405 9.0001143,17.6772823 C8.60959,18.1056378 7.98133424,18.1110226 7.58175596,17.6727361 L1.29715229,10.779326 C0.904338901,10.3484597 0.897574012,9.6573077 1.29715229,9.2190212 L7.58175596,2.32561114 C7.97456935,1.89474487 8.60686734,1.88972301 9.0001143,2.32106485 C9.39063859,2.74942028 9.3919773,3.44245325 8.99339795,3.87964405 L4.41432786,8.90230092 L17.9975741,8.90230092 C18.5512618,8.90230092 19.0001143,9.38916412 19.0001143,9.9991736 C19.0001143,10.6049597 18.5475965,11.0960463 17.9975741,11.0960463 L4.41432786,11.0960463 L8.99339795,16.1187032 Z" id="path-1"></path>
    </defs>
    <g id="控件" stroke="none" stroke-width="1" fill="none" fill-rule="evenodd">
        <g id="_Icons-/-Arrow-Left" transform="translate(-1.000000, -2.000000)">
            <mask id="mask-2" fill="white">
                <use xlink:href="#path-1"></use>
            </mask>
            <use id="Arrow-Left" fill="#1D1D26" xlink:href="#path-1"></use>
        </g>
    </g>
</svg>